<?xml version="1.0" encoding="utf-8"?>
<!-- Generator: Adobe Illustrator 22.1.0, SVG Export Plug-In . SVG Version: 6.00 Build 0)  -->
<svg version="1.1" xmlns="http://www.w3.org/2000/svg" xmlns:xlink="http://www.w3.org/1999/xlink" x="0px" y="0px"
	 viewBox="0 0 595.276 841.89" enable-background="new 0 0 595.276 841.89" xml:space="preserve">
<g id="Layer_2" display="none">
</g>
<g id="Layer_4" display="none">
</g>
<g id="Layer_1">
</g>
<g id="Layer_3">
</g>
<g id="Layer_5">
	<g>
		<path fill="#231F20" d="M375.659,210.992c0.02,12.411-2.395,24.83-7.139,36.311c-4.728,11.486-11.753,22.02-20.525,30.828
			c-8.77,8.806-19.248,15.933-30.736,20.747c-11.477,4.836-23.927,7.349-36.403,7.415c-12.475,0.057-24.975-2.332-36.545-7.073
			c-11.57-4.729-22.215-11.756-31.095-20.588c-8.871-8.838-15.997-19.43-20.813-31.002c-4.832-11.566-7.321-24.098-7.349-36.638
			c0.021-12.54,2.515-25.073,7.346-36.639c4.816-11.572,11.942-22.164,20.814-31.002c8.875-8.839,19.525-15.862,31.094-20.592
			c11.57-4.741,24.071-7.13,36.547-7.072c12.476,0.067,24.927,2.58,36.404,7.417c11.488,4.815,21.967,11.941,30.735,20.75
			c8.772,8.808,15.797,19.342,20.525,30.828C373.264,186.161,375.679,198.58,375.659,210.992z M375.659,210.992
			c-0.029-12.412-2.492-24.811-7.274-36.255c-4.765-11.45-11.817-21.931-20.597-30.678c-8.786-8.743-19.323-15.694-30.771-20.372
			c-11.448-4.69-23.815-7.053-36.162-6.996c-12.347,0.067-24.665,2.555-36.019,7.34c-11.366,4.763-21.732,11.818-30.411,20.53
			c-8.68,8.716-15.631,19.139-20.308,30.503c-4.695,11.359-7.078,23.645-7.066,35.927c-0.019,12.283,2.369,24.569,7.063,35.929
			c4.677,11.364,11.629,21.788,20.309,30.504c8.674,8.719,19.045,15.769,30.411,20.534c11.356,4.786,23.674,7.273,36.021,7.339
			c12.347,0.057,24.715-2.307,36.164-6.997c11.448-4.679,21.986-11.629,30.77-20.375c8.779-8.747,15.831-19.228,20.596-30.678
			C373.167,235.803,375.63,223.403,375.659,210.992z"/>
	</g>
</g>
</svg>
