<svg xmlns="http://www.w3.org/2000/svg" viewBox="0 0 595.28 841.89"><defs><style>.cls-1{fill:#231f20;}</style></defs><title>dot2</title><g id="Layer_5" data-name="Layer 5"><path class="cls-1" d="M376.21,211a96.67,96.67,0,0,1-1.91,18.59,98,98,0,0,1-5.35,17.9,99.28,99.28,0,0,1-20.24,31.36,95.2,95.2,0,0,1-48.88,27.54,96.31,96.31,0,0,1-56.47-4.87A98.59,98.59,0,0,1,181.65,211a99.42,99.42,0,0,1,43.4-83.52,97,97,0,0,1,36.21-15,101.56,101.56,0,0,1,19.6-1.75A94.79,94.79,0,0,1,350,141.87a100.46,100.46,0,0,1,19.74,32.32,98.27,98.27,0,0,1,5,18.14A102.55,102.55,0,0,1,376.21,211Zm-1.1,0a88.16,88.16,0,0,0-7.92-35.76A88.92,88.92,0,0,0,358,159.48,91.81,91.81,0,0,0,345.81,146a94,94,0,0,0-30.42-18.43,92.8,92.8,0,0,0-17-4.56,95.88,95.88,0,0,0-17.49-1.36,92.38,92.38,0,0,0-34.09,7,92.26,92.26,0,0,0-29.1,19.13A89.17,89.17,0,0,0,190.45,211a90.65,90.65,0,0,0,25.9,64.51A91.41,91.41,0,0,0,280.86,303a94,94,0,0,0,66.21-25.83,92.35,92.35,0,0,0,12-14,89.93,89.93,0,0,0,14.34-33.83A94.81,94.81,0,0,0,375.11,211Z"/></g></svg>